<?xml version="1.0" standalone="no"?>
<!DOCTYPE svg PUBLIC "-//W3C//DTD SVG 20010904//EN"
 "http://www.w3.org/TR/2001/REC-SVG-20010904/DTD/svg10.dtd">
<svg version="1.0" xmlns="http://www.w3.org/2000/svg"
 width="512.000000pt" height="512.000000pt" viewBox="0 0 512.000000 512.000000"
 preserveAspectRatio="xMidYMid meet">
<metadata>
Created by potrace 1.14, written by Peter Selinger 2001-2017
</metadata>
<g transform="translate(0.000000,512.000000) scale(0.100000,-0.100000)"
fill="#000000" stroke="none">
<path d="M2805 4590 c-105 -23 -147 -88 -170 -262 -10 -75 -16 -113 -36 -242
-11 -72 -22 -147 -25 -166 -3 -19 -7 -46 -9 -60 -2 -14 -11 -72 -20 -130 -9
-58 -18 -116 -21 -130 -2 -14 -6 -45 -10 -70 -3 -25 -7 -52 -9 -60 -3 -8 -7
-33 -10 -55 -9 -70 -23 -164 -30 -205 -3 -14 -7 -45 -10 -70 -3 -25 -7 -52
-10 -60 -2 -8 -7 -35 -10 -60 -3 -25 -8 -56 -10 -70 -3 -14 -9 -54 -14 -90 -5
-36 -16 -110 -25 -165 -8 -55 -17 -118 -21 -140 -3 -23 -7 -50 -9 -60 -4 -21
-15 -89 -22 -140 -2 -16 -6 -41 -9 -55 -2 -14 -7 -45 -10 -70 -7 -53 -71 -471
-79 -515 -3 -16 -8 -48 -11 -70 -2 -22 -7 -51 -9 -65 -2 -14 -8 -47 -12 -75
-4 -27 -8 -52 -9 -55 0 -3 -5 -32 -9 -65 -4 -32 -9 -67 -11 -76 -4 -20 -11
-66 -21 -134 -3 -27 -8 -59 -10 -70 -3 -11 -9 -52 -15 -92 -5 -39 -12 -82 -14
-94 -23 -119 -31 -217 -21 -253 34 -115 166 -172 273 -117 76 38 100 96 127
311 3 25 8 54 10 65 5 30 16 96 21 130 4 35 12 87 25 165 11 67 17 109 25 175
4 28 8 57 10 65 3 8 14 78 25 155 27 179 29 195 35 225 2 14 7 43 10 65 3 23
7 51 10 64 2 13 7 44 10 69 3 25 11 84 19 131 8 47 17 106 20 131 3 25 8 54
10 65 6 33 18 104 21 128 10 87 17 133 21 138 2 4 6 33 10 65 3 32 7 60 9 63
2 3 6 30 10 60 4 30 8 63 11 74 2 11 8 55 14 97 6 42 13 87 15 101 3 13 12 71
20 129 9 58 22 146 30 195 8 50 17 108 20 130 3 22 10 65 15 95 5 30 12 74 15
98 3 24 7 53 10 65 2 12 7 40 10 62 8 57 20 136 50 335 32 211 30 265 -11 317
-48 59 -122 88 -189 73z"/>
<path d="M1333 4000 c-55 -13 -71 -26 -207 -171 -39 -41 -136 -144 -217 -229
-81 -85 -163 -173 -184 -195 -50 -54 -281 -300 -325 -345 -19 -20 -96 -101
-170 -180 -74 -79 -148 -157 -164 -174 -88 -91 -84 -203 10 -302 20 -22 89
-95 153 -163 64 -68 132 -140 151 -160 19 -20 98 -104 175 -185 77 -82 158
-168 180 -191 97 -102 336 -356 400 -424 108 -116 137 -140 185 -156 121 -39
249 54 245 180 -2 80 -6 87 -178 269 -157 167 -149 158 -309 327 -75 79 -151
160 -169 179 -18 19 -73 78 -123 130 -225 237 -321 341 -321 350 0 8 102 120
326 355 47 49 100 106 118 125 79 84 290 308 331 350 184 192 288 306 304 337
48 90 11 210 -79 256 -39 19 -92 26 -132 17z"/>
<path d="M3704 4000 c-96 -21 -156 -103 -148 -203 5 -72 5 -72 385 -472 42
-44 91 -96 109 -115 36 -39 268 -284 401 -424 148 -156 204 -218 204 -227 0
-5 -50 -62 -111 -126 -62 -65 -126 -134 -144 -153 -43 -46 -280 -297 -401
-424 -53 -56 -111 -117 -128 -136 -18 -19 -88 -93 -155 -163 -143 -151 -161
-181 -160 -258 0 -46 6 -63 33 -101 54 -76 160 -105 237 -65 27 14 139 122
234 227 18 19 92 98 165 175 72 77 149 158 170 180 20 22 96 103 168 179 197
208 193 203 327 346 69 73 140 148 158 167 94 100 94 202 -1 305 -71 76 -255
273 -314 335 -26 27 -103 108 -169 179 -67 71 -148 157 -180 190 -33 34 -84
88 -114 120 -161 172 -359 381 -385 407 -50 49 -118 71 -181 57z"/>
</g>
</svg>
